<svg xmlns="http://www.w3.org/2000/svg" viewBox="0 0 200 160" width="400" height="320" style="-webkit-font-smoothing:antialiased!important;-moz-osx-font-smoothing:grayscale!important;font-family:'Roboto-Regular',roboto,arial,sans-serif;font-weight:normal">
  <g opacity="1">
    <path fill="#FFF" d="M2.6 158h194.7c.4 0 .6-.3.6-.6V2.6c0-.4-.3-.6-.6-.6H2.6c-.4 0-.6.2-.6.6v154.8c0 .4.3.6.6.6z" />
    <path fill="#000" opacity="0.08" d="M197.3 0H2.6C1.1 0 0 1.1 0 2.6V157.4c0 1.4 1.1 2.6 2.6 2.6h194.8c1.4 0 2.6-1.1 2.6-2.6V2.6c-.1-1.5-1.2-2.6-2.7-2.6zM2 2.6c0-.4.2-.6.6-.6h194.7c.3 0 .6.2.6.6v154.8c0 .3-.2.6-.6.6H2.6c-.3 0-.6-.2-.6-.6V2.6z" />
  </g>

  <path fill="none" stroke="#000" opacity="0.15" stroke-width="1.5" stroke-linecap="round" d="M28.1 42.8C24.8 51.2 23 60.3 23 69.9c0 33 21.6 61 51.5 70.6M171.9 42.8c3.3 8.4 5.1 17.5 5.1 27.1 0 33-21.6 61-51.5 70.6" />
  <path fill="#00CEA6" d="M28.7 39.4l5.2-6.5-.7-8.4-5.2 6.6zM22.8 49l2.2-7.4-3.5-4.6c-1 2.2-1.8 4.6-2.6 6.9l3.9 5.1zM31 43.4l-2.2 7.4 5-1.7c.7-2.6 1.6-5.1 2.5-7.5L31 43.4zM19.6 64.9l1-7.7-4.3-4c-.5 2.5-.9 4.9-1.2 7.5l4.5 4.2zM26.9 58l-1 7.7 5.7-3.1c.2-2.6.5-5.1.9-7.7L26.9 58zM19.8 71.9l-5.3-3.8c0 1-.1 1.9-.1 2.9 0 1.6.1 3.2.1 4.8l5.3 3.8v-7.7zM26.1 71.9l.1 7.8 5.7-4.2c-.3-2.4-.5-4.9-.5-7.4l-5.3 3.8zM23.2 94.5l-1.6-7.6-6.2-2.8c.4 2.6.9 5.1 1.5 7.6l6.3 2.8zM27.8 85.6l1.6 7.6 5.1-5.5c-.7-2.4-1.3-4.8-1.8-7.3l-4.9 5.2zM29.7 108.1l-3.1-7.1-7.2-1.5c.8 2.4 1.8 4.7 2.8 7l7.5 1.6zM32.3 98.5l3.1 7.1 3.8-6.5C38 96.8 37 94.4 36 92l-3.7 6.5zM38.8 120.7l-4.4-6.4-8.3-.1c1.3 2.2 2.6 4.3 4.1 6.4l8.6.1zM39.5 110.7l4.4 6.4 2.5-7c-1.6-2-3.1-4.1-4.5-6.3l-2.4 6.9zM41.6 133.6l9-1.8-5.7-5.3-8.6 1.8c1.7 1.8 3.5 3.6 5.3 5.3zM50.1 114.3l-.9 7.6 5.7 5.3.9-7.4c-2-1.8-3.9-3.6-5.7-5.5zM58.5 137.2l-7.5 4c1.5 1 3 2.1 4.6 3l1.7.8 8.3-4.4-7.1-3.4zM61.2 131.5l7 3.4-1.3-7.6c-2.5-1.4-4.9-2.9-7.2-4.6l1.5 8.8zM172 31.1l-5.2-6.6-.7 8.4 5.2 6.5zM175 41.6l2.2 7.4 3.9-5.1c-.8-2.3-1.7-4.6-2.6-6.9l-3.5 4.6zM171.2 50.9l-2.2-7.4-5.3-1.8c1 2.4 1.8 5 2.5 7.5l5 1.7zM184.9 60.6c-.3-2.5-.7-5-1.2-7.5l-4.3 4 1 7.7 4.5-4.2zM174.1 65.7l-1-7.7-5.6-3c.5 2.5.8 5.1.9 7.7l5.7 3zM180.1 79.7l5.3-3.8c.1-1.6.1-3.2.1-4.8 0-1 0-2-.1-2.9l-5.3 3.8v7.7zM173.8 79.6l.1-7.8-5.3-3.9c0 2.5-.2 5-.5 7.4l5.7 4.3zM178.4 86.9l-1.6 7.6 6.3-2.8c.6-2.5 1.1-5 1.5-7.6l-6.2 2.8zM170.6 93.2l1.6-7.6-4.8-5.3c-.5 2.5-1.1 4.9-1.8 7.3l5 5.6zM173.5 101l-3.1 7.1 7.6-1.6c1-2.3 2-4.6 2.8-7l-7.3 1.5zM164.6 105.5l3.1-7.1L164 92c-.9 2.4-2 4.8-3.2 7l3.8 6.5zM165.6 114.3l-4.4 6.4 8.6-.1c1.5-2.1 2.8-4.2 4.1-6.4l-8.3.1zM156 117.1l4.4-6.4-2.4-6.9c-1.4 2.2-2.9 4.3-4.5 6.3l2.5 7zM163.7 128.2l-8.6-1.8-5.7 5.3 9 1.8c1.8-1.6 3.6-3.4 5.3-5.3zM144.2 119.7l.9 7.4 5.7-5.3-.9-7.6c-1.8 2-3.7 3.8-5.7 5.5zM141.5 137.2l-7 3.4 8.3 4.4 1.7-.8c1.6-.9 3.1-2 4.6-3l-7.6-4zM131.8 134.9l7-3.4 1.5-8.8c-2.3 1.7-4.7 3.2-7.2 4.6l-1.3 7.6z" />

  <path fill="#024B6D" d="M114.7 50.8h-2.5v2.7h-1.7v2.3h1.7v4.7c0 2.6.8 3.9 3.8 3.9h1.1v-2.6h-.9c-1.2 0-1.5-.5-1.5-1.6v-4.5h2.7v-2.3h-2.7v-2.6zM119.7 49.4h2.7v2.5h-2.7zM119.7 53.5h2.7v10.9h-2.7zM130.5 58c-2.8-.8-3.3-1-3.3-1.6 0-.5.6-1 1.7-1 1.5 0 2 .8 2.3 1.7l2.2-.7c-.5-1.8-1.9-3.2-4.6-3.2-2.7 0-4.1 1.6-4.1 3.3 0 1.7 1.3 2.5 3.6 3.2 2.2.6 2.9.8 2.9 1.5s-.8 1.2-2.2 1.2c-1.4 0-2.3-.8-2.4-2.3l-2.4.6c.3 1.9 1.7 3.9 4.9 3.9 3.1 0 4.4-1.9 4.4-3.4.3-1.4-.3-2.5-3-3.2zM140.1 53.2c-2.8 0-5 2.2-5 5.7s2.2 5.7 5.1 5.7c2.3 0 3.6-1.1 4.5-2.4l-1.9-1.6c-.5.8-1.3 1.7-2.7 1.7-1.5 0-2.3-.9-2.4-2.6h7.3v-.8c.1-3.5-2-5.7-4.9-5.7zm-2.4 4.5c.1-1.2 1-2.2 2.3-2.2 1.4 0 2.3.8 2.4 2.2h-4.7zM56.7 64.4h9.1v-2.6h-6.4v-3.5h5.8v-2.5h-5.8v-3.2h6.4V50h-9.1zM77.8 53.5h-2.7l-2.5 3.7-2.4-3.7h-2.8l3.5 5.3-3.7 5.6H70l2.6-3.9 2.6 3.9h2.9l-3.8-5.6zM85.1 53.2c-2.1 0-2.9 1.4-2.9 1.4v-1h-2.5V69h2.7v-5.7s.8 1.4 2.8 1.4c2.5 0 4.8-2 4.8-5.7-.1-3.8-2.5-5.8-4.9-5.8zm-.5 9.1c-1.5 0-2.6-1.1-2.6-3.3 0-2.3 1.1-3.3 2.6-3.3s2.6 1.1 2.6 3.3c0 2.2-1.1 3.3-2.6 3.3zM96.2 53.2c-2.8 0-5 2.2-5 5.7s2.2 5.7 5.1 5.7c2.3 0 3.6-1.1 4.5-2.4l-1.9-1.6c-.5.8-1.3 1.7-2.7 1.7-1.5 0-2.3-.9-2.4-2.6h7.3v-.8c.1-3.5-2.1-5.7-4.9-5.7zm-2.3 4.5c.1-1.2 1-2.2 2.3-2.2 1.4 0 2.3.8 2.4 2.2h-4.7zM107.8 53.3c-1 0-1.8.6-2.2 1.4v-1.1H103v10.9h2.7v-6c0-1.7.7-2.5 1.9-2.5.3 0 .6.1.8.2l.4-2.6c-.4-.2-.7-.3-1-.3z" />

  <g opacity="0">
    <path fill="#FFF" d="M98.7 14.4L111.3 27l-4.3 4.3 2.6 2.5 6.8-6.8L98.7 9.3l-6.8 6.8 2.5 2.6z" />
    <path fill="#FFF" opacity="0.75" d="M107 16.1l2.6 2.6 4.2-4.3L126.4 27l-12.6 12.5L101.2 27l4.3-4.3-2.5-2.5-4.3 4.2L83.6 9.3 65.9 27l17.7 17.6 6.8-6.8-2.5-2.6-4.3 4.3L71 27l12.6-12.6L96.2 27l-4.3 4.3 2.5 2.5 4.3-4.3 15.1 15.1L131.5 27 113.8 9.3z"  />
    <path fill="#FFF" d="M98.7 39.5L86.2 27l4.2-4.3-2.5-2.5-6.8 6.8 17.6 17.6 6.8-6.8-2.5-2.6z" />
  </g>

  <g opacity="1">
    <path fill="#00CEA6" d="M131.5 27L113.8 9.3l-7.5 7.6 2.5 2.5 5-5L126.4 27l-12.6 12.6-5-5.1-2.5-2.5-5.1-5 5.1-5-2.6-2.6-5 5-5-5-2.6-2.5-7.5-7.6L65.9 27l17.7 17.6 7.5-7.5-2.5-2.6-5 5.1L71 27l12.6-12.6 5 5 2.5 2.6 5.1 5-5.1 5 2.6 2.5 5-5 5 5 2.6 2.6 7.5 7.5z" />
    <path fill="#024B6D" d="M98.7 14.4l5 5 2.6 2.6 5 5-5 5 2.5 2.5 7.6-7.5-7.6-7.6-2.5-2.5-7.6-7.6-7.6 7.6 2.6 2.5zM103.7 34.5l-5 5.1-5-5.1-2.6-2.5-5-5 5-5-2.5-2.6-7.5 7.6 7.5 7.5 2.5 2.6 7.6 7.5 7.6-7.5z" />
  </g>

  <path fill="none" stroke="#000" opacity="0.15" stroke-width="1.5" stroke-linecap="round" d="M46.1 76.7h108.3" />

  <text fill="#00CEA6" font-size="10.6020172119px" text-anchor="middle" x="100" y="93.4859779339">Best Massage</text><text fill="#00CEA6" font-size="10.6020172119px" text-anchor="middle" x="100" y="106.971955868">Therapists in San</text><text fill="#00CEA6" font-size="10.6020172119px" text-anchor="middle" x="100" y="120.457933802">Francisco</text>

  <text class="year" fill="#024B6D" font-size="16px" text-anchor="middle" x="100" y="148">2017</text>

</svg>